<svg id="Layer_1" data-name="Layer 1" xmlns="http://www.w3.org/2000/svg" viewBox="0 0 1025 1025"><defs><style>.cls-1{fill:#f7ea08;}.cls-2,.cls-3,.cls-4{fill:none;stroke:#000;stroke-linecap:round;stroke-miterlimit:10;}.cls-2{stroke-width:35.28px;}.cls-3{stroke-width:27.42px;}.cls-4{stroke-width:41.37px;}</style></defs><title>smiley</title><circle class="cls-1" cx="512.5" cy="512.5" r="512.5"/><path class="cls-2" d="M428.76,279.35c0,81.7-22.47,147.92-104.16,147.92S213.13,361,213.13,279.35" transform="translate(-0.5 0.5)"/><path class="cls-2" d="M812.87,279.35c0,81.7-22.47,147.92-104.16,147.92S597.24,361,597.24,279.35" transform="translate(-0.5 0.5)"/><path class="cls-3" d="M339.09,562.36a56.68,56.68,0,0,1-113.19,6" transform="translate(-0.5 0.5)"/><path class="cls-3" d="M761.61,562.36a56.68,56.68,0,1,1-113.19,6" transform="translate(-0.5 0.5)"/><path class="cls-4" d="M705.06,635.11c0,94.81-92.3,171.67-206.16,171.67S292.73,729.92,292.73,635.11" transform="translate(-0.5 0.5)"/></svg>